<svg xmlns="http://www.w3.org/2000/svg" xmlns:xlink="http://www.w3.org/1999/xlink" width="150" height="28" viewBox="0 0 150 28"><defs><path id="a" d="M20.325,1.275 C21.825,-0.225 24.225,-0.225 25.725,1.275 C27.225,2.775 27.225,5.175 25.725,6.675 C24.725,7.675 23.225,8.075 21.825,7.575 C20.625,7.275 19.725,7.475 19.125,8.075 C19.025,8.175 18.925,8.175 18.825,8.075 C18.725,7.975 18.725,7.875 18.825,7.775 C19.425,7.175 19.625,6.175 19.325,4.975 C19.025,3.675 19.325,2.275 20.325,1.275 Z M29.925,1.475 C31.425,-0.025 33.925,-0.025 35.425,1.475 C36.925,2.975 36.925,5.475 35.425,6.975 C33.925,8.475 31.425,8.475 29.925,6.975 C28.425,5.475 28.425,2.975 29.925,1.475 Z M17.025,0.075 C17.125,-0.025 17.225,-0.025 17.325,0.075 C17.425,0.175 17.425,0.275 17.325,0.375 C16.725,0.975 16.525,1.975 16.825,3.175 C17.225,4.475 16.825,5.975 15.825,6.975 C14.325,8.475 11.825,8.475 10.325,6.975 C8.825,5.475 8.825,2.975 10.325,1.475 C11.325,0.375 12.825,0.075 14.225,0.675 C15.425,0.875 16.425,0.675 17.025,0.075 Z M1.125,1.275 C2.625,-0.225 5.025,-0.225 6.525,1.275 C7.925,2.775 7.925,5.175 6.525,6.675 C5.025,8.175 2.625,8.175 1.125,6.675 C-0.375,5.175 -0.375,2.775 1.125,1.275 Z"/></defs><g fill="none" fill-rule="evenodd"><path fill="#0057B7" fill-rule="nonzero" d="M17.225,3.825 C17.225,5.925 15.525,7.625 13.425,7.625 C11.325,7.625 9.625,5.925 9.625,3.825 C9.625,1.725 11.325,0.025 13.425,0.025 C15.525,0.025 17.225,1.725 17.225,3.825 Z"/><path fill="#389919" fill-rule="nonzero" d="M141.325,26.925 C139.125,26.925 137.325,26.225 136.125,24.825 C134.925,23.425 134.225,21.425 134.225,19.025 L134.225,11.725 C134.225,11.025 134.825,10.525 135.425,10.525 L137.025,10.525 C137.725,10.525 138.225,11.125 138.225,11.725 L138.225,18.725 C138.225,21.525 139.425,22.925 141.825,22.925 C144.325,22.925 145.625,21.425 145.625,18.425 L145.625,11.725 C145.625,11.025 146.225,10.525 146.825,10.525 L148.425,10.525 C149.125,10.525 149.625,11.125 149.625,11.725 L149.625,25.525 C149.625,26.225 149.025,26.725 148.425,26.725 L148.025,26.725 C147.425,26.725 146.825,26.225 146.825,25.625 L146.725,25.025 C146.725,24.925 146.625,24.825 146.525,24.725 C146.525,24.725 146.425,24.725 146.425,24.725 C146.325,24.725 146.225,24.725 146.125,24.825 C145.325,26.225 143.525,26.925 141.325,26.925 Z M54.625,26.925 C52.125,26.925 49.525,26.125 47.925,24.825 C47.625,24.625 47.525,24.225 47.425,23.925 C47.425,23.525 47.525,23.225 47.825,22.925 L48.425,22.325 C48.625,22.125 48.925,22.025 49.325,22.025 C49.525,22.025 49.825,22.125 50.025,22.225 C51.225,23.025 53.025,23.525 54.525,23.525 L54.725,23.525 C56.325,23.525 57.125,22.925 57.125,21.925 C57.125,20.825 56.425,20.325 54.325,20.125 C54.325,20.125 53.425,20.025 53.425,20.025 C51.425,19.825 49.925,19.325 48.925,18.525 C47.925,17.725 47.325,16.625 47.325,15.225 C47.325,12.125 50.025,10.125 53.925,10.025 L54.225,10.025 C56.325,10.025 58.525,10.825 60.025,12.025 C60.325,12.225 60.425,12.625 60.425,12.925 C60.425,13.325 60.325,13.625 60.025,13.825 L59.425,14.425 C59.225,14.625 58.925,14.725 58.625,14.725 C58.325,14.725 58.125,14.625 57.925,14.525 C56.725,13.625 55.225,13.225 54.325,13.225 L54.025,13.225 C53.625,13.225 51.525,13.325 51.525,14.825 C51.525,15.625 51.925,16.125 54.225,16.325 C54.225,16.325 54.225,16.325 54.225,16.325 C55.025,16.425 55.325,16.425 55.325,16.425 C57.325,16.525 58.825,17.025 59.825,17.925 C60.825,18.725 61.325,19.925 61.325,21.525 C61.325,24.525 58.625,26.625 54.825,26.625 C54.825,26.925 54.625,26.925 54.625,26.925 Z M127.725,26.725 C127.025,26.725 126.525,26.125 126.525,25.525 L126.525,11.625 C126.525,10.925 127.125,10.425 127.725,10.425 L129.325,10.425 C130.025,10.425 130.525,11.025 130.525,11.625 L130.525,25.425 C130.525,26.125 129.925,26.625 129.325,26.625 L127.725,26.725 L127.725,26.725 Z M100.625,26.725 C99.925,26.725 99.425,26.125 99.425,25.525 L99.425,5.125 C99.425,4.425 100.025,3.825 100.625,3.825 L102.325,3.825 C103.025,3.825 103.525,4.425 103.525,5.125 L103.525,25.425 C103.525,26.125 102.925,26.625 102.325,26.625 L100.625,26.625 L100.625,26.725 Z M76.425,26.725 C76.025,26.725 75.625,26.525 75.425,26.125 L73.025,22.325 C71.925,20.625 71.325,20.225 69.925,20.225 L69.125,20.225 C68.925,20.225 68.825,20.325 68.825,20.525 L68.825,25.325 C68.825,26.025 68.225,26.525 67.625,26.525 L66.025,26.525 C65.325,26.525 64.825,25.925 64.825,25.325 L64.825,5.125 C64.825,4.425 65.425,3.825 66.025,3.825 L67.625,3.825 C68.325,3.825 68.825,4.425 68.825,5.125 L68.825,16.025 C68.825,16.225 68.925,16.325 69.125,16.325 L69.725,16.325 C71.125,16.325 71.725,15.925 72.825,14.225 L75.025,10.925 C75.225,10.525 75.625,10.325 76.025,10.325 L77.625,10.325 C78.125,10.325 78.525,10.625 78.725,11.025 C78.925,11.425 78.925,11.925 78.625,12.325 L76.225,15.925 C75.625,16.825 75.025,17.625 74.425,18.025 C74.325,18.125 74.325,18.225 74.325,18.325 C74.325,18.425 74.425,18.525 74.425,18.625 C75.225,19.125 75.925,20.125 76.425,20.825 L79.025,24.825 C79.325,25.225 79.325,25.725 79.125,26.125 C78.925,26.525 78.525,26.825 78.025,26.825 L76.425,26.725 L76.425,26.725 Z M128.525,8.725 C127.125,8.725 126.125,7.625 126.125,6.325 C126.125,4.925 127.225,3.925 128.525,3.925 C129.925,3.925 130.925,5.025 130.925,6.325 C130.925,7.725 129.925,8.725 128.525,8.725 Z M123.825,18.525 C123.825,13.725 120.425,10.125 115.925,10.125 C114.525,10.125 113.125,10.625 112.125,11.425 C112.025,11.525 112.025,11.525 111.925,11.525 C111.925,11.525 111.825,11.525 111.825,11.525 C111.725,11.425 111.625,11.325 111.625,11.225 L111.625,5.125 C111.625,4.425 111.025,3.825 110.425,3.825 L108.725,3.825 C108.025,3.825 107.525,4.425 107.525,5.125 L107.525,25.425 C107.525,26.125 108.125,26.625 108.725,26.625 L109.125,26.625 C109.725,26.625 110.325,26.125 110.325,25.525 L110.325,25.125 C110.325,25.025 110.425,24.925 110.525,24.825 C110.525,24.825 110.625,24.825 110.625,24.825 C110.725,24.825 110.825,24.825 110.825,24.925 C112.125,26.225 113.825,26.925 115.725,26.925 C120.425,26.925 123.825,23.325 123.825,18.525 Z M119.725,18.325 C119.725,21.125 117.525,22.625 115.525,22.625 C113.525,22.625 111.325,21.125 111.325,18.325 C111.325,16.225 112.925,13.925 115.525,13.925 C117.525,13.925 119.725,15.525 119.725,18.325 Z M88.925,26.825 C86.725,26.825 84.625,25.925 83.025,24.425 C81.425,22.825 80.625,20.725 80.625,18.525 C80.625,16.325 81.525,14.225 83.025,12.625 C84.625,11.025 86.725,10.225 88.925,10.225 C91.125,10.225 93.225,11.125 94.825,12.625 C94.825,12.625 95.825,13.625 95.825,13.625 C95.925,13.725 95.925,13.925 95.825,14.025 C95.525,14.525 95.225,14.925 94.825,15.325 L90.225,19.925 C89.825,20.325 89.325,20.525 88.825,20.525 C88.325,20.525 87.825,20.325 87.425,19.925 C87.025,19.525 86.825,19.025 86.825,18.525 C86.825,18.025 87.025,17.525 87.425,17.125 C87.425,17.125 90.225,14.325 90.225,14.325 C89.725,14.125 89.225,14.125 88.725,14.125 C87.525,14.125 86.425,14.625 85.525,15.425 C83.825,17.125 83.825,20.025 85.525,21.725 C86.325,22.525 87.525,23.025 88.725,23.025 C89.925,23.025 91.025,22.525 91.825,21.725 L91.825,21.725 C92.225,21.325 92.725,21.125 93.225,21.125 C93.725,21.125 94.225,21.325 94.625,21.725 C95.025,22.125 95.325,22.525 95.625,23.025 C95.725,23.125 95.725,23.325 95.625,23.425 L94.625,24.425 C93.325,26.025 91.225,26.825 88.925,26.825 Z"/><path fill="#0057B7" fill-rule="nonzero" d="M25.625,6.625 C27.125,5.125 27.125,2.625 25.625,1.125 C24.125,-0.375 21.625,-0.375 20.125,1.125 C19.125,2.125 18.725,3.625 19.125,4.925 C19.425,6.125 19.225,7.125 18.625,7.725 C18.525,7.825 18.525,7.925 18.625,8.025 C18.725,8.125 18.825,8.125 18.925,8.025 C19.525,7.425 20.525,7.225 21.725,7.425 C23.025,8.025 24.525,7.625 25.625,6.625 Z"/><g transform="translate(0 9.45)"><mask id="b" fill="#fff"><use xlink:href="#a"/></mask><use xlink:href="#a" fill="gold" fill-rule="nonzero"/><rect width="37" height="4.5" y="-.45" fill="#0057B7" mask="url(#b)"/></g><path fill="gold" fill-rule="nonzero" d="M22.825 19.625C20.725 19.625 18.925 21.325 18.925 23.525 18.925 25.625 20.625 27.425 22.825 27.425 25.025 27.425 26.725 25.725 26.725 23.525 26.725 21.325 25.025 19.625 22.825 19.625ZM10.725 20.425C9.225 21.925 9.225 24.325 10.725 25.825 12.225 27.325 14.625 27.325 16.125 25.825 17.125 24.825 17.425 23.425 17.125 22.125 16.825 20.925 17.025 19.925 17.625 19.325 17.725 19.225 17.725 19.125 17.625 19.025 17.525 18.925 17.425 18.925 17.325 19.025 16.725 19.625 15.825 19.825 14.625 19.525 13.225 19.025 11.725 19.325 10.725 20.425Z"/></g></svg>